{"title":"The.Tattooed.Widow.aka.Den.tatuerade.ÃƒÂ¤nkan1998.DVDRip.XviD.-Zen","uid":5659341,"size":737771294,"categoryP":"video","categoryS":"movies","magnet":"?xt=urn:btih:8c82bfe8704ece7089f37d3f4824d2e3000c648e&amp;dn=The.Tattooed.Widow.aka.Den.tatuerade.%C3%83%C2%A4nkan1998.DVDRip.XviD.-Zen&amp;tr=udp%3A%2F%2Ftracker.openbittorrent.com%3A80&amp;tr=udp%3A%2F%2Fopen.demonii.com%3A1337&amp;tr=udp%3A%2F%2Ftracker.coppersurfer.tk%3A6969&amp;tr=udp%3A%2F%2Fexodus.desync.com%3A6969","seeders":0,"leechers":1,"uploader":"Zen_Bud","files":-1,"time":1277914184,"description":"General\nComplete name                    : The.Tattooed.Widow.aka.Den.tatuerade.ÃƒÂ¤nkan.avi\nFormat                           : AVI\nFile size                        : 704 MiB\nDuration                         : 1h 38mn\nOverall bit rate                 : 995 Kbps\n\nVideo\n\nFormat                           : MPEG-4 Visual\nCodec ID/Hint                    : XviD\nDuration                         : 1h 38mn\nBit rate                         : 870 Kbps\nWidth                            : 700 pixels\nHeight                           : 452 pixels\nDisplay aspect ratio             : 1.652\nStream size                      : 615 MiB (87%)\nWriting library                  : XviD 1.1.2 (UTC 2006-11-01)\n\nAudio\n\nFormat                           : MPEG Audio\nCodec ID/Hint                    : MP3\nDuration                         : 1h 38mn\nBit rate                         : 112 Kbps\nChannel(s)                       : 2 channels\nSampling rate                    : 48.0 KHz\nStream size                      : 79.2 MiB (11%)\nWriting library                  : LAME3.98\n\n","torrent":{"xt":"urn:btih:8c82bfe8704ece7089f37d3f4824d2e3000c648e","amp;dn":"The.Tattooed.Widow.aka.Den.tatuerade.%C3%83%C2%A4nkan1998.DVDRip.XviD.-Zen","amp;tr":["udp%3A%2F%2Ftracker.openbittorrent.com%3A80","udp%3A%2F%2Fopen.demonii.com%3A1337","udp%3A%2F%2Ftracker.coppersurfer.tk%3A6969","udp%3A%2F%2Fexodus.desync.com%3A6969"],"infoHash":"8c82bfe8704ece7089f37d3f4824d2e3000c648e","infoHashBuffer":{"type":"Buffer","data":[140,130,191,232,112,78,206,112,137,243,125,63,72,36,210,227,0,12,100,142]},"announce":[],"urlList":[]}}